<svg width="228" height="47" viewBox="0 0 228 47" fill="none" xmlns="http://www.w3.org/2000/svg">
<path d="M31.3898 37.8474H8.61017C8.33898 37.8474 8 37.7796 7.79661 37.5763C2.84746 33.7796 0 27.9491 0 21.7118C0 10.661 8.94915 1.71185 20 1.71185C31.0508 1.71185 40 10.661 40 21.7118C40 27.9491 37.1525 33.7796 32.2034 37.5763C32 37.7118 31.661 37.8474 31.3898 37.8474ZM9.08475 35.1356H30.9153C34.9831 31.8135 37.2881 26.9322 37.2881 21.7118C37.2881 12.1525 29.4915 4.42371 20 4.42371C10.5085 4.42371 2.71186 12.1525 2.71186 21.7118C2.71186 26.9322 5.01695 31.8135 9.08475 35.1356ZM37.9661 47H2.0339C1.62712 47 1.22034 46.7966 0.949152 46.4576C0.677966 46.1186 0.61017 45.7118 0.745763 45.3051L3.32203 36.0847C3.45763 35.4746 4 35.0678 4.61017 35.0678H35.4576C36.0678 35.0678 36.6102 35.4746 36.7458 36.0847L39.2542 45.3051C39.3898 45.7118 39.2542 46.1186 39.0508 46.4576C38.7797 46.7966 38.3729 47 37.9661 47ZM10.9831 27.9491C11.2542 27.6779 11.3898 27.339 11.3898 27C11.3898 26.661 11.2542 26.322 10.9831 26.0508C10.5085 25.5763 9.55932 25.5763 9.08475 26.0508C8.81356 26.322 8.67797 26.661 8.67797 27C8.67797 27.339 8.81356 27.6779 9.08475 27.9491C9.35593 28.2203 9.69491 28.3559 10.0339 28.3559C10.3729 28.3559 10.7119 28.2203 10.9831 27.9491Z" fill="#A855F7"/>
<path d="M13.6949 29.9715C13.6949 30.3105 13.5593 30.6495 13.2881 30.9207C13.017 31.1918 12.678 31.3274 12.339 31.3274C12 31.3274 11.661 31.1918 11.3898 30.9207C11.1186 30.6495 10.9831 30.3105 10.9831 29.9715C10.9831 29.6325 11.1186 29.2935 11.3898 29.0223C11.8644 28.5478 12.8136 28.5478 13.2881 29.0223C13.5593 29.2935 13.6949 29.6325 13.6949 29.9715Z" fill="#A855F7"/>
<path d="M70.32 29.694H57.858V46H53.394V1.608H70.32C78.876 1.608 84.27 7.188 84.27 15.558C84.27 23.618 78.814 29.694 70.32 29.694ZM69.7 5.638H57.858V25.664H69.452C75.9 25.664 79.62 21.572 79.62 15.496C79.62 9.358 75.838 5.638 69.7 5.638Z" fill="#1C1917"/>
<path d="M108.094 15.62V19.464H105.738C100.22 19.464 96.686 23.184 96.686 28.888V46H92.408V15.992H96.438L96.748 20.642C97.926 17.418 101.088 15.31 105.304 15.31C106.234 15.31 107.04 15.372 108.094 15.62Z" fill="#1C1917"/>
<path d="M127.077 46.744C118.273 46.744 112.383 40.42 112.383 30.996C112.383 21.634 118.211 15.186 126.767 15.186C134.889 15.186 140.407 20.952 140.407 29.446V31.554H116.537C116.847 38.87 120.691 43.086 127.139 43.086C132.037 43.086 135.199 40.978 136.315 37.01H140.407C138.795 43.334 134.145 46.744 127.077 46.744ZM126.767 18.844C121.125 18.844 117.405 22.564 116.661 28.454H136.129C136.129 22.688 132.409 18.844 126.767 18.844Z" fill="#1C1917"/>
<path d="M160.887 46.744C152.145 46.744 146.999 40.048 146.999 31.058C146.999 22.006 152.145 15.186 161.073 15.186C166.033 15.186 170.001 17.356 172.109 21.696V0.802002H176.387V46H172.667L172.232 39.862C170.124 44.512 165.909 46.744 160.887 46.744ZM161.631 42.838C168.203 42.838 172.047 37.878 172.047 30.934C172.047 24.052 168.203 19.03 161.631 19.03C155.121 19.03 151.339 24.052 151.339 30.934C151.339 37.878 155.121 42.838 161.631 42.838Z" fill="#1C1917"/>
<path d="M189.282 7.746C187.546 7.746 186.12 6.32 186.12 4.584C186.12 2.848 187.546 1.36 189.282 1.36C191.018 1.36 192.506 2.848 192.506 4.584C192.506 6.32 191.018 7.746 189.282 7.746ZM187.174 46V15.992H191.452V46H187.174Z" fill="#1C1917"/>
<path d="M206.697 46H202.419V0.802002H206.697V31.492L221.577 15.992H226.971L215.439 27.958L227.033 46H222.073L212.525 30.996L206.697 37.01V46Z" fill="#1C1917"/>
</svg>
